<svg id="Layer_1" data-name="Layer 1" xmlns="http://www.w3.org/2000/svg" xmlns:xlink="http://www.w3.org/1999/xlink" viewBox="0 0 95 160"><defs><style>.cls-1,.cls-2{fill-rule:evenodd;}.cls-1{fill:url(#linear-gradient);}.cls-2{fill:url(#linear-gradient-2);}</style><linearGradient id="linear-gradient" x1="46.47" y1="48.81" x2="139.02" y2="102.24" gradientUnits="userSpaceOnUse"><stop offset="0" stop-color="#ec407a"/><stop offset="0.34" stop-color="#8e24aa"/><stop offset="0.75" stop-color="#512da8"/><stop offset="1" stop-color="#1565c0"/></linearGradient><linearGradient id="linear-gradient-2" x1="84.14" y1="155.77" x2="108.57" y2="169.87" xlink:href="#linear-gradient"/></defs><title>hurrayup</title><path class="cls-1" d="M94.76,17A53.56,53.56,0,0,0,54,35.84a2.12,2.12,0,0,0-.31,2.24,2.09,2.09,0,0,0,1.9,1.22H74.41a2.06,2.06,0,0,0,1.07-.3,37,37,0,0,1,19.28-5.4,37.56,37.56,0,0,1,14.64,72,36.53,36.53,0,0,1-7.35,2.3c-.89.18-1.78.31-2.67.42l-.12-2.82c10.7-4.82,9.31-25.69,8.37-39.6-.1-1.69-.21-3.25-.28-4.66a1,1,0,0,0-1-1h-2a1.06,1.06,0,0,0-1.06,1l-.8,24.91-.79-24.91a1.06,1.06,0,0,0-1.06-1H98.28a1.07,1.07,0,0,0-1.06,1L96.43,86.2h-.11l-.79-24.91a1.06,1.06,0,0,0-1.06-1H92.22a1.09,1.09,0,0,0-1.08,1L90.37,86.2h-.15l-.79-24.91a1.06,1.06,0,0,0-1.06-1h-2a1,1,0,0,0-1,1l-.19,2.4c-1.07,12.9-3,36.69,8.24,41.88l-1.2,37.63c.34-.09.7-.15,1.05-.21s.7-.1,1.05-.13a19.68,19.68,0,0,1,2.1-.12,17.46,17.46,0,0,1,2.34.15,8.11,8.11,0,0,1,1.05.15c.36.06.71.12,1.05.21L100.06,125c1.13-.12,2.28-.27,3.53-.46a55.89,55.89,0,0,0,7.26-1.75A53.83,53.83,0,0,0,148.5,71.1C148.5,41.27,124.39,17,94.76,17Z" transform="translate(-53.5 -17)"/><path class="cls-2" d="M101.06,149.46a8.61,8.61,0,0,0-1.05-.33c-.34-.1-.7-.18-1.05-.25a14.84,14.84,0,0,0-2.59-.24,13,13,0,0,0-2.3.19A8.2,8.2,0,0,0,93,149c-.36.09-.71.19-1.05.31a14.09,14.09,0,1,0,9.1.1Z" transform="translate(-53.5 -17)"/></svg>