<svg id="Layer_1" data-name="Layer 1" xmlns="http://www.w3.org/2000/svg" xmlns:xlink="http://www.w3.org/1999/xlink" viewBox="0 0 548 160"><defs><style>.cls-1,.cls-2{fill-rule:evenodd;}.cls-1{fill:url(#linear-gradient);}.cls-2{fill:url(#linear-gradient-2);}.cls-3{fill:url(#linear-gradient-3);}.cls-4{fill:url(#linear-gradient-4);}.cls-5{fill:url(#linear-gradient-5);}.cls-6{fill:url(#linear-gradient-6);}.cls-7{fill:url(#linear-gradient-7);}.cls-8{fill:url(#linear-gradient-8);}.cls-9{fill:url(#linear-gradient-9);}.cls-10{fill:url(#linear-gradient-10);}</style><linearGradient id="linear-gradient" x1="514.89" y1="60.78" x2="607.5" y2="114.25" gradientUnits="userSpaceOnUse"><stop offset="0" stop-color="#ec407a"/><stop offset="0.34" stop-color="#8e24aa"/><stop offset="0.75" stop-color="#512da8"/><stop offset="1" stop-color="#1565c0"/></linearGradient><linearGradient id="linear-gradient-2" x1="552.61" y1="167.81" x2="577.01" y2="181.9" xlink:href="#linear-gradient"/><linearGradient id="linear-gradient-3" x1="63.14" y1="59.67" x2="102.51" y2="127.86" gradientUnits="userSpaceOnUse"><stop offset="0.19" stop-color="#512da8"/><stop offset="1" stop-color="#1565c0"/></linearGradient><linearGradient id="linear-gradient-4" x1="136.74" y1="70.9" x2="168.08" y2="125.18" xlink:href="#linear-gradient-3"/><linearGradient id="linear-gradient-5" x1="192.24" y1="75.18" x2="215.84" y2="116.06" xlink:href="#linear-gradient-3"/><linearGradient id="linear-gradient-6" x1="235.19" y1="75.18" x2="258.8" y2="116.06" xlink:href="#linear-gradient-3"/><linearGradient id="linear-gradient-7" x1="283.23" y1="77.51" x2="313.51" y2="129.95" xlink:href="#linear-gradient-3"/><linearGradient id="linear-gradient-8" x1="359.87" y1="73.1" x2="393.67" y2="131.63" xlink:href="#linear-gradient-3"/><linearGradient id="linear-gradient-9" x1="424.42" y1="70.9" x2="455.77" y2="125.18" xlink:href="#linear-gradient-3"/><linearGradient id="linear-gradient-10" x1="478.92" y1="76.19" x2="510.73" y2="131.29" xlink:href="#linear-gradient-3"/></defs><title>hurrayup</title><path class="cls-1" d="M563.2,29a53.64,53.64,0,0,0-40.8,18.84,2.12,2.12,0,0,0-.31,2.24A2.09,2.09,0,0,0,524,51.3h18.84a2.06,2.06,0,0,0,1.07-.3,37.46,37.46,0,1,1,34,66.61,36.6,36.6,0,0,1-7.36,2.3c-.89.18-1.78.31-2.67.42l-.12-2.82c10.71-4.82,9.32-25.69,8.38-39.6-.1-1.69-.21-3.25-.28-4.66a1,1,0,0,0-1-1h-2a1.06,1.06,0,0,0-1.06,1l-.8,24.91-.79-24.91a1.06,1.06,0,0,0-1.06-1h-2.28a1.07,1.07,0,0,0-1.06,1l-.79,24.91h-.11L564,73.29a1.06,1.06,0,0,0-1.06-1h-2.26a1.09,1.09,0,0,0-1.08,1l-.77,24.91h-.15l-.79-24.91a1.06,1.06,0,0,0-1.06-1h-2a1,1,0,0,0-1,1l-.19,2.4c-1.07,12.9-3,36.69,8.25,41.88l-1.2,37.63c.34-.09.7-.15,1.05-.21s.7-.1,1.05-.13a19.72,19.72,0,0,1,2.11-.12,17.5,17.5,0,0,1,2.34.15,8.13,8.13,0,0,1,1.05.15c.36.06.71.12,1.05.21L568.51,137c1.13-.12,2.28-.27,3.53-.46a56,56,0,0,0,7.27-1.75A54.15,54.15,0,0,0,563.2,29Z" transform="translate(-69 -29)"/><path class="cls-2" d="M569.51,161.52a8.6,8.6,0,0,0-1.05-.33c-.34-.1-.7-.18-1.05-.25a14.84,14.84,0,0,0-2.59-.24,13,13,0,0,0-2.3.19,8.2,8.2,0,0,0-1.05.21c-.36.09-.71.19-1.05.31a14.07,14.07,0,1,0,9.09.1Z" transform="translate(-69 -29)"/><path class="cls-3" d="M69,56.29h8V81.51a23.93,23.93,0,0,1,5.3-5.25,17.92,17.92,0,0,1,10-2.62q10.75,0,14.58,7.5Q109,85.24,109,92.52v31.62h-8V92.9q0-5.46-1.42-8-2.31-4.07-8.68-4.07a14.63,14.63,0,0,0-9.58,3.56Q77,87.95,77,97.85v26.29H69Z" transform="translate(-69 -29)"/><path class="cls-4" d="M139.92,74.25v32.91a14.46,14.46,0,0,0,1.15,6.2q2.12,4.44,7.9,4.44,8.29,0,11.3-7.78,1.63-4.17,1.63-11.43V74.25h8v49.89h-8l.09-7.36a16.6,16.6,0,0,1-15.08,8.71q-10.25,0-14-7.13-2-3.82-2-10.2V74.25Z" transform="translate(-69 -29)"/><path class="cls-5" d="M193.86,74.25h8v8.56q1-2.5,4.7-6.09a12.11,12.11,0,0,1,8.63-3.59l.78,0,1.87.19v9.3a12.72,12.72,0,0,0-1.38-.19q-.63,0-1.38,0-9.43,0-12.4,9a17.55,17.55,0,0,0-.82,5.5v27.23h-8Z" transform="translate(-69 -29)"/><path class="cls-6" d="M236.82,74.25h8v8.56q1-2.5,4.7-6.09a12.11,12.11,0,0,1,8.63-3.59l.78,0,1.87.19v9.3a12.72,12.72,0,0,0-1.38-.19q-.63,0-1.38,0-9.43,0-12.4,9a17.55,17.55,0,0,0-.82,5.5v27.23h-8Z" transform="translate(-69 -29)"/><path class="cls-7" d="M304.14,94.4A4.53,4.53,0,0,0,308,92a7.37,7.37,0,0,0,.56-3.21q0-4.27-3-6.2t-8.67-1.93q-6.52,0-9.25,3.54a11.78,11.78,0,0,0-2,6h-7.78c.15-6.33,2.14-10.6,5.95-13A24.37,24.37,0,0,1,297,73.62q8.75,0,14.21,3.33c3.61,2.22,5.41,5.68,5.5,10.37v28.56a3.11,3.11,0,0,0,.45,2.08,2.57,2.57,0,0,0,2.25.79q.56,0,1.25-.07c.46,0,1-.12,2-.21v6.15c-1.86.37-2.85.6-3.53.69a21.66,21.66,0,0,1-2.78.14q-4.31,0-6.25-3.05a11.75,11.75,0,0,1-1.44-4.58,21.21,21.21,0,0,1-7.32,5.78,22.67,22.67,0,0,1-10.52,2.45,15.66,15.66,0,0,1-11.28-4.18,13.88,13.88,0,0,1-4.38-10.47q0-6.89,4.31-10.68a20.54,20.54,0,0,1,11.31-4.67ZM287,116.91a9.82,9.82,0,0,0,6.26,2.08,19.07,19.07,0,0,0,8.53-2,11.44,11.44,0,0,0,7-11V99.2a14.21,14.21,0,0,1-3.93,1.63,33.21,33.21,0,0,1-4.72.93l-5,.65a19.5,19.5,0,0,0-6.82,1.89,7.36,7.36,0,0,0-3.87,6.93A6.84,6.84,0,0,0,287,116.91Z" transform="translate(-69 -29)"/><path class="cls-8" d="M392.3,75.25h9.22Q399.76,80,393.69,97q-4.54,12.78-7.6,20.84-7.22,19-10.18,23.13t-10.18,4.16A20,20,0,0,1,363,145a21.43,21.43,0,0,1-2.34-.51V136.9a29.11,29.11,0,0,0,3.15.74,12.41,12.41,0,0,0,1.71.14,6,6,0,0,0,3.4-.76,7.06,7.06,0,0,0,1.83-1.87q.23-.37,1.67-3.79t2.08-5.08l-18.35-51h9.45l13.3,40.38Z" transform="translate(-69 -29)"/><path class="cls-9" d="M427.61,74.25v32.91a14.46,14.46,0,0,0,1.15,6.2q2.12,4.44,7.9,4.44,8.29,0,11.3-7.78,1.63-4.17,1.63-11.43V74.25h8v49.89h-8l.09-7.36a16.6,16.6,0,0,1-15.08,8.71q-10.25,0-14-7.13-2-3.82-2-10.2V74.25Z" transform="translate(-69 -29)"/><path class="cls-10" d="M480.55,75.25h7v6.38a54.76,54.76,0,0,1,6.38-5.23,17.69,17.69,0,0,1,9.94-2.78,18.72,18.72,0,0,1,14.36,6.46q5.9,6.46,5.9,18.44,0,16.2-8.51,23.14a19.3,19.3,0,0,1-12.56,4.4,17.12,17.12,0,0,1-9.44-2.45,45.1,45.1,0,0,1-5.07-4.77V144.1h-8Zm31.12,38.67q3.88-4.88,3.88-14.6a27.17,27.17,0,0,0-1.72-10.18q-3.26-8.19-11.9-8.19T490,89.59a34.18,34.18,0,0,0-1.72,11.76,24.83,24.83,0,0,0,1.72,9.77q3.25,7.69,11.9,7.68A12,12,0,0,0,511.67,113.91Z" transform="translate(-69 -29)"/></svg>